HIERARCHY
ROOT mixamorig:Hips
{
	OFFSET 0.000000 201.639420 0.000000
	CHANNELS 6 Xposition Yposition Zposition Xrotation Yrotation Zrotation
	JOINT mixamorig:Spine
	{
		OFFSET 0.006200 19.524994 -2.481800
		CHANNELS 3 Xrotation Yrotation Zrotation
		JOINT mixamorig:Spine1
		{
			OFFSET -0.000900 22.835007 -2.825400
			CHANNELS 3 Xrotation Yrotation Zrotation
			JOINT mixamorig:Spine2
			{
				OFFSET -0.020600 26.552490 -3.193300
				CHANNELS 3 Xrotation Yrotation Zrotation
				JOINT mixamorig:Neck
				{
					OFFSET -0.060000 30.701813 1.352200
					CHANNELS 3 Xrotation Yrotation Zrotation
					JOINT mixamorig:Head
					{
						OFFSET -0.087200 22.547607 3.670900
						CHANNELS 3 Xrotation Yrotation Zrotation
						JOINT mixamorig:HeadTop_End
						{
							OFFSET -0.830600 40.355194 7.893500
							CHANNELS 3 Xrotation Yrotation Zrotation
							End Site
							{
								OFFSET 0.000000 30.592346 0.000000
							}
						}
						JOINT mixamorig:RightEye
						{
							OFFSET -6.302100 18.118591 16.197100
							CHANNELS 3 Xrotation Yrotation Zrotation
							End Site
							{
								OFFSET 0.000000 30.592346 0.000000
							}
						}
						JOINT mixamorig:LeftEye
						{
							OFFSET 6.741500 18.382690 16.401899
							CHANNELS 3 Xrotation Yrotation Zrotation
							End Site
							{
								OFFSET 0.000000 30.592346 0.000000
							}
						}
					}
				}
				JOINT mixamorig:LeftShoulder
				{
					OFFSET 11.924900 18.230499 1.425400
					CHANNELS 3 Xrotation Yrotation Zrotation
					JOINT mixamorig:LeftArm
					{
						OFFSET 25.435989 -0.697632 -5.229300
						CHANNELS 3 Xrotation Yrotation Zrotation
						JOINT mixamorig:LeftForeArm
						{
							OFFSET 54.684776 0.000000 0.000000
							CHANNELS 3 Xrotation Yrotation Zrotation
							JOINT mixamorig:LeftHand
							{
								OFFSET 55.098175 0.000000 0.000000
								CHANNELS 3 Xrotation Yrotation Zrotation
								JOINT mixamorig:LeftHandMiddle1
								{
									OFFSET 23.369751 0.000000 0.000000
									CHANNELS 3 Xrotation Yrotation Zrotation
									JOINT mixamorig:LeftHandMiddle2
									{
										OFFSET 6.378677 0.000000 0.000000
										CHANNELS 3 Xrotation Yrotation Zrotation
										JOINT mixamorig:LeftHandMiddle3
										{
											OFFSET 6.148331 0.000000 0.000000
											CHANNELS 3 Xrotation Yrotation Zrotation
											JOINT mixamorig:LeftHandMiddle4
											{
												OFFSET 6.582504 0.000000 0.000000
												CHANNELS 3 Xrotation Yrotation Zrotation
												End Site
												{
													OFFSET -1.168900 6.395691 1.028606
												}
											}
										}
									}
								}
								JOINT mixamorig:LeftHandThumb1
								{
									OFFSET 7.235672 -3.848206 5.434273
									CHANNELS 3 Xrotation Yrotation Zrotation
									JOINT mixamorig:LeftHandThumb2
									{
										OFFSET 6.568451 -3.792297 3.792300
										CHANNELS 3 Xrotation Yrotation Zrotation
										JOINT mixamorig:LeftHandThumb3
										{
											OFFSET 6.063080 -3.500519 3.500518
											CHANNELS 3 Xrotation Yrotation Zrotation
											JOINT mixamorig:LeftHandThumb4
											{
												OFFSET 4.793182 -2.767334 2.767349
												CHANNELS 3 Xrotation Yrotation Zrotation
												End Site
												{
													OFFSET 0.101639 6.054260 1.275483
												}
											}
										}
									}
								}
								JOINT mixamorig:LeftHandIndex1
								{
									OFFSET 23.101074 -0.309540 4.992809
									CHANNELS 3 Xrotation Yrotation Zrotation
									JOINT mixamorig:LeftHandIndex2
									{
										OFFSET 6.226883 0.000000 0.000000
										CHANNELS 3 Xrotation Yrotation Zrotation
										JOINT mixamorig:LeftHandIndex3
										{
											OFFSET 6.094330 0.000000 0.000000
											CHANNELS 3 Xrotation Yrotation Zrotation
											JOINT mixamorig:LeftHandIndex4
											{
												OFFSET 5.482605 0.000000 0.000000
												CHANNELS 3 Xrotation Yrotation Zrotation
												End Site
												{
													OFFSET -1.427902 5.233032 0.797164
												}
											}
										}
									}
								}
								JOINT mixamorig:LeftHandRing1
								{
									OFFSET 22.299240 0.021149 -3.964172
									CHANNELS 3 Xrotation Yrotation Zrotation
									JOINT mixamorig:LeftHandRing2
									{
										OFFSET 6.321869 0.000000 0.000000
										CHANNELS 3 Xrotation Yrotation Zrotation
										JOINT mixamorig:LeftHandRing3
										{
											OFFSET 5.899796 0.000000 0.000000
											CHANNELS 3 Xrotation Yrotation Zrotation
											JOINT mixamorig:LeftHandRing4
											{
												OFFSET 6.517899 0.000000 0.000000
												CHANNELS 3 Xrotation Yrotation Zrotation
												End Site
												{
													OFFSET -1.637299 6.232208 0.980890
												}
											}
										}
									}
								}
								JOINT mixamorig:LeftHandPinky1
								{
									OFFSET 20.463791 -0.302338 -8.562233
									CHANNELS 3 Xrotation Yrotation Zrotation
									JOINT mixamorig:LeftHandPinky2
									{
										OFFSET 6.908646 0.000000 0.000000
										CHANNELS 3 Xrotation Yrotation Zrotation
										JOINT mixamorig:LeftHandPinky3
										{
											OFFSET 4.622849 0.000000 0.000000
											CHANNELS 3 Xrotation Yrotation Zrotation
											JOINT mixamorig:LeftHandPinky4
											{
												OFFSET 5.216080 0.000000 0.000000
												CHANNELS 3 Xrotation Yrotation Zrotation
												End Site
												{
													OFFSET -0.606308 5.116241 0.814926
												}
											}
										}
									}
								}
							}
						}
					}
				}
				JOINT mixamorig:RightShoulder
				{
					OFFSET -12.001300 18.284088 1.348900
					CHANNELS 3 Xrotation Yrotation Zrotation
					JOINT mixamorig:RightArm
					{
						OFFSET -25.308500 -0.751312 -5.164599
						CHANNELS 3 Xrotation Yrotation Zrotation
						JOINT mixamorig:RightForeArm
						{
							OFFSET -54.684429 0.000000 0.000000
							CHANNELS 3 Xrotation Yrotation Zrotation
							JOINT mixamorig:RightHand
							{
								OFFSET -55.150291 0.000000 0.000000
								CHANNELS 3 Xrotation Yrotation Zrotation
								JOINT mixamorig:RightHandMiddle1
								{
									OFFSET -23.317566 0.000000 0.000000
									CHANNELS 3 Xrotation Yrotation Zrotation
									JOINT mixamorig:RightHandMiddle2
									{
										OFFSET -6.378403 0.000000 0.000000
										CHANNELS 3 Xrotation Yrotation Zrotation
										JOINT mixamorig:RightHandMiddle3
										{
											OFFSET -6.148193 0.000000 0.000000
											CHANNELS 3 Xrotation Yrotation Zrotation
											JOINT mixamorig:RightHandMiddle4
											{
												OFFSET -6.583389 0.000000 0.000000
												CHANNELS 3 Xrotation Yrotation Zrotation
												End Site
												{
													OFFSET 1.171692 6.395905 1.029786
												}
											}
										}
									}
								}
								JOINT mixamorig:RightHandThumb1
								{
									OFFSET -7.190521 -3.860474 5.435846
									CHANNELS 3 Xrotation Yrotation Zrotation
									JOINT mixamorig:RightHandThumb2
									{
										OFFSET -6.567429 -3.791718 3.791708
										CHANNELS 3 Xrotation Yrotation Zrotation
										JOINT mixamorig:RightHandThumb3
										{
											OFFSET -6.062469 -3.500153 3.500166
											CHANNELS 3 Xrotation Yrotation Zrotation
											JOINT mixamorig:RightHandThumb4
											{
												OFFSET -4.792618 -2.767029 2.767022
												CHANNELS 3 Xrotation Yrotation Zrotation
												End Site
												{
													OFFSET -0.100327 6.053253 1.276754
												}
											}
										}
									}
								}
								JOINT mixamorig:RightHandIndex1
								{
									OFFSET -23.048981 -0.310791 4.992554
									CHANNELS 3 Xrotation Yrotation Zrotation
									JOINT mixamorig:RightHandIndex2
									{
										OFFSET -6.227539 0.000000 0.000000
										CHANNELS 3 Xrotation Yrotation Zrotation
										JOINT mixamorig:RightHandIndex3
										{
											OFFSET -6.095047 0.000000 0.000000
											CHANNELS 3 Xrotation Yrotation Zrotation
											JOINT mixamorig:RightHandIndex4
											{
												OFFSET -5.484772 0.000000 0.000000
												CHANNELS 3 Xrotation Yrotation Zrotation
												End Site
												{
													OFFSET 1.420593 5.237305 0.797056
												}
											}
										}
									}
								}
								JOINT mixamorig:RightHandRing1
								{
									OFFSET -22.246323 0.020569 -3.963762
									CHANNELS 3 Xrotation Yrotation Zrotation
									JOINT mixamorig:RightHandRing2
									{
										OFFSET -6.322128 0.000000 0.000000
										CHANNELS 3 Xrotation Yrotation Zrotation
										JOINT mixamorig:RightHandRing3
										{
											OFFSET -5.900024 0.000000 0.000000
											CHANNELS 3 Xrotation Yrotation Zrotation
											JOINT mixamorig:RightHandRing4
											{
												OFFSET -6.518356 0.000000 0.000000
												CHANNELS 3 Xrotation Yrotation Zrotation
												End Site
												{
													OFFSET 1.636398 6.232697 0.982186
												}
											}
										}
									}
								}
								JOINT mixamorig:RightHandPinky1
								{
									OFFSET -20.411011 -0.303314 -8.561701
									CHANNELS 3 Xrotation Yrotation Zrotation
									JOINT mixamorig:RightHandPinky2
									{
										OFFSET -6.907349 0.000000 0.000000
										CHANNELS 3 Xrotation Yrotation Zrotation
										JOINT mixamorig:RightHandPinky3
										{
											OFFSET -4.623840 0.000000 0.000000
											CHANNELS 3 Xrotation Yrotation Zrotation
											JOINT mixamorig:RightHandPinky4
											{
												OFFSET -5.218353 0.000000 0.000000
												CHANNELS 3 Xrotation Yrotation Zrotation
												End Site
												{
													OFFSET 0.602097 5.118835 0.816273
												}
											}
										}
									}
								}
							}
						}
					}
				}
			}
		}
	}
	JOINT mixamorig:LeftUpLeg
	{
		OFFSET 18.168400 -13.561905 -0.039000
		CHANNELS 3 Xrotation Yrotation Zrotation
		JOINT mixamorig:LeftLeg
		{
			OFFSET 0.577358 -80.825211 -3.695000
			CHANNELS 3 Xrotation Yrotation Zrotation
			JOINT mixamorig:LeftFoot
			{
				OFFSET -0.577356 -83.370262 -6.520700
				CHANNELS 3 Xrotation Yrotation Zrotation
				JOINT mixamorig:LeftToeBase
				{
					OFFSET 0.750401 -20.798306 25.135401
					CHANNELS 3 Xrotation Yrotation Zrotation
					JOINT mixamorig:LeftToe_End
					{
						OFFSET -0.000500 0.001200 19.917799
						CHANNELS 3 Xrotation Yrotation Zrotation
						End Site
						{
							OFFSET 0.000000 19.917805 0.000000
						}
					}
				}
			}
		}
	}
	JOINT mixamorig:RightUpLeg
	{
		OFFSET -18.162500 -13.585098 -0.041000
		CHANNELS 3 Xrotation Yrotation Zrotation
		JOINT mixamorig:RightLeg
		{
			OFFSET -0.595024 -80.945297 -3.631900
			CHANNELS 3 Xrotation Yrotation Zrotation
			JOINT mixamorig:RightFoot
			{
				OFFSET 0.595024 -83.218193 -6.561200
				CHANNELS 3 Xrotation Yrotation Zrotation
				JOINT mixamorig:RightToeBase
				{
					OFFSET -0.753601 -20.807106 25.115000
					CHANNELS 3 Xrotation Yrotation Zrotation
					JOINT mixamorig:RightToe_End
					{
						OFFSET 0.000299 0.001700 19.918200
						CHANNELS 3 Xrotation Yrotation Zrotation
						End Site
						{
							OFFSET 0.000000 19.918203 0.000000
						}
					}
				}
			}
		}
	}
}
MOTION
Frames: 5
Frame Time: 0.033333
0.059009 199.869904 1.208376 -5.554280 -0.499724 -0.470600 2.840507 -0.065770 0.985569 0.538985 -0.036743 0.189363 0.538495 -0.036547 0.190351 1.220991 1.103395 -0.574038 -6.916896 -0.785764 -0.623790 -0.000001 0.000000 0.000000 -0.000001 0.000000 0.000000 -0.000001 0.000000 0.000000 0.736003 0.219368 -10.453797 9.341515 -23.164740 -59.552631 0.000001 -25.836452 0.000001 8.282602 10.483828 -17.057115 1.760874 5.439358 -23.669334 1.405241 4.173481 -37.203924 0.028104 0.622743 -5.167515 -0.000001 -0.000001 0.000002 -0.386348 5.853697 8.800715 9.813816 27.954854 -3.703165 -3.052226 -8.025874 4.254838 -0.000001 -0.000003 -0.000002 2.657401 6.357564 -30.602062 0.508082 2.600415 -22.107196 0.233674 1.782017 -14.940014 -0.000001 -0.000002 -0.000006 1.722559 4.659388 -34.041741 0.646825 2.918406 -24.988582 0.046432 0.799921 -6.643744 0.000001 -0.000001 0.000001 4.736832 10.836811 -26.911480 1.185235 -0.216699 -34.292539 0.009787 0.367903 -3.050038 -0.000001 -0.000001 -0.000003 0.981327 4.772818 10.847977 11.835983 19.863151 58.380618 -0.000002 25.998220 0.000017 1.187718 -5.116042 6.899775 -0.984577 0.190732 27.667112 0.606658 -2.845270 24.067951 0.008486 -0.773990 6.332822 0.000003 -0.000001 -0.000003 -6.348428 -11.252317 -8.312399 11.750114 -26.179114 1.270526 -3.077277 5.192966 -2.003046 -0.000002 0.000001 0.000000 -1.863151 1.968190 27.411637 0.653378 -2.947464 24.992275 0.001040 -0.120151 0.985954 -0.000001 -0.000001 -0.000002 0.880528 -3.419731 25.692233 0.712595 -3.071165 26.120481 -0.001243 -0.262069 2.148999 -0.000002 0.000001 0.000003 0.436545 -2.748824 33.308913 0.615775 -2.865557 24.250906 0.047334 -0.811605 6.675255 0.000002 -0.000000 -0.000001 -5.467373 9.408306 5.092683 14.831846 -5.540908 2.553036 -4.242358 0.441386 -4.942408 -0.000095 -0.000000 0.000002 0.000000 -0.000000 0.000000 -2.653516 -8.703848 -4.153039 10.429770 -6.185496 -5.436008 -1.603814 -0.572154 8.945833 -0.195197 -0.000007 -0.000001 0.000000 0.000000 0.000000 
0.127950 199.841415 1.105293 -5.488031 -0.544759 -0.445966 2.965454 -0.104740 0.951005 0.591808 -0.053692 0.173943 0.591345 -0.054438 0.175230 1.286859 1.147288 -0.635637 -7.389148 -0.617701 -0.586239 -0.000001 0.000000 -0.000000 -0.000001 0.000000 -0.000000 -0.000001 0.000000 -0.000000 0.735385 0.245550 -10.464185 9.337303 -23.057807 -59.472151 0.000006 -25.762948 0.000024 8.387459 10.430446 -16.935961 1.781408 5.460577 -23.869938 1.408118 4.177246 -37.243410 0.028031 0.621907 -5.160537 0.000002 0.000001 0.000001 -0.337653 5.951016 8.894533 9.796212 27.908751 -3.689103 -3.039685 -7.924343 4.231906 0.000001 0.000001 -0.000000 2.694522 6.391423 -30.851654 0.508378 2.601165 -22.114010 0.233821 1.782545 -14.944464 -0.000000 -0.000000 0.000002 1.730395 4.667366 -34.161550 0.644543 2.913507 -24.943656 0.046342 0.799142 -6.637321 0.000001 0.000000 0.000004 4.726198 10.756225 -27.100557 1.192469 -0.206096 -34.398714 0.009626 0.364845 -3.024641 0.000002 -0.000003 0.000003 0.977245 4.695331 10.785370 11.662803 19.627232 58.570928 -0.000004 26.017555 0.000002 1.263833 -5.282775 6.889683 -1.021047 0.258574 27.688048 0.606807 -2.845586 24.070854 0.032890 -0.774084 6.355949 0.000003 -0.000001 0.000001 -6.203609 -11.551511 -8.389800 11.937784 -26.593316 1.346581 -3.026313 5.044250 -2.003578 -0.000003 0.000000 0.000001 -1.888506 1.856643 28.142652 0.653066 -2.946823 24.986526 0.001216 -0.129899 1.065964 -0.000000 0.000000 0.000000 0.876236 -3.406196 25.983102 0.713136 -3.072256 26.130494 0.003142 -0.263660 2.163429 0.000001 -0.000000 0.000000 0.356472 -2.634977 33.494766 0.636210 -2.910433 24.656425 0.048445 -0.821019 6.753166 -0.000001 0.000001 -0.000002 -5.628656 9.382287 5.079638 14.966211 -5.484369 2.492808 -4.275390 0.438128 -4.886142 -0.000012 0.000000 -0.000003 0.000000 0.000000 0.000000 -2.626406 -8.692176 -4.163830 10.181575 -6.184866 -5.468713 -1.619519 -0.576720 8.960340 -0.028733 -0.000003 -0.000002 -0.000000 -0.000002 -0.000000 
0.146058 199.806778 0.886742 -5.389038 -0.587239 -0.408215 3.218727 -0.130694 0.908500 0.701435 -0.065775 0.158842 0.700923 -0.067795 0.160392 1.348519 1.183905 -0.692784 -8.006232 -0.497631 -0.486600 0.000000 0.000000 -0.000000 0.000000 0.000000 -0.000000 0.000000 0.000000 -0.000000 0.732434 0.285019 -10.421315 9.185460 -22.867668 -59.279560 -0.000000 -25.528525 0.000004 8.316980 10.383094 -16.782820 1.793456 5.473374 -23.983057 1.407834 4.176867 -37.239472 0.027775 0.619054 -5.136863 -0.000001 0.000001 -0.000002 -0.288250 6.049478 8.951500 9.785243 27.880197 -3.680497 -3.040209 -7.907977 4.226764 0.000001 -0.000000 -0.000001 2.720711 6.419181 -30.989531 0.507999 2.600207 -22.105497 0.233658 1.781946 -14.939268 -0.000002 -0.000004 -0.000003 1.738582 4.676711 -34.250434 0.642601 2.909323 -24.905549 0.046111 0.797173 -6.620732 -0.000001 -0.000002 0.000001 4.700984 10.703390 -27.116517 1.192365 -0.206240 -34.397188 0.009599 0.364300 -3.020309 -0.000002 -0.000002 -0.000004 0.971231 4.585924 10.686563 11.412121 19.441100 58.591419 -0.000007 26.123991 -0.000005 1.233779 -5.582466 6.779990 -1.051581 0.315829 27.702438 0.607018 -2.846063 24.075100 0.043625 -0.774367 6.368121 -0.000002 -0.000001 -0.000000 -6.193106 -11.594647 -8.468510 11.980234 -26.687292 1.368666 -3.018883 5.021286 -2.002880 -0.000002 -0.000001 -0.000001 -1.901486 1.811383 28.466085 0.653083 -2.946857 24.986756 0.001366 -0.138218 1.134188 -0.000001 0.000001 -0.000003 0.853858 -3.359352 26.060810 0.712170 -3.070287 26.112413 0.005044 -0.264326 2.169560 0.000000 0.000003 0.000002 0.294158 -2.540360 33.494186 0.643721 -2.926700 24.803765 0.048928 -0.825077 6.786627 0.000003 0.000002 -0.000001 -5.860459 9.320629 5.044086 15.100609 -5.403389 2.474151 -4.265606 0.438731 -4.867563 -0.000049 0.000000 -0.000003 -0.000000 0.000000 0.000000 -2.941855 -8.610676 -4.204903 10.425078 -6.242332 -5.508112 -1.680257 -0.586903 8.982686 0.000020 0.000003 -0.000002 -0.000000 -0.000000 0.000000 
0.120993 199.778564 0.528168 -5.226553 -0.613350 -0.367433 3.610517 -0.147104 0.864940 0.871997 -0.074582 0.144105 0.871407 -0.078329 0.145885 1.395279 1.208459 -0.751433 -8.787972 -0.446052 -0.359999 -0.000000 -0.000000 0.000000 -0.000000 -0.000000 0.000000 -0.000000 -0.000000 0.000000 0.728736 0.309816 -10.346906 9.010128 -22.438812 -58.908490 0.000000 -25.341947 0.000010 8.126675 10.256640 -16.655155 1.801848 5.482524 -24.060014 1.410951 4.180962 -37.282625 0.027550 0.616627 -5.116662 0.000001 0.000002 0.000002 -0.246411 6.135606 9.019444 9.768636 27.839907 -3.668787 -3.046967 -7.935864 4.231189 -0.000001 -0.000000 -0.000004 2.743182 6.444065 -31.096916 0.506831 2.597345 -22.079782 0.233243 1.780370 -14.925686 0.000001 -0.000002 -0.000003 1.747785 4.687327 -34.346713 0.643835 2.911969 -24.929584 0.045990 0.796129 -6.612159 -0.000000 -0.000005 0.000000 4.651255 10.638027 -27.024156 1.192663 -0.205822 -34.401515 0.009718 0.366418 -3.037709 -0.000001 0.000000 0.000001 0.965683 4.495692 10.577157 11.181619 19.030808 58.446707 -0.000011 26.356879 0.000032 1.380933 -6.111648 6.760360 -1.084964 0.377604 27.723103 0.606885 -2.845761 24.072421 0.044520 -0.774926 6.373635 0.000004 -0.000003 -0.000002 -6.294801 -11.428738 -8.557133 11.907486 -26.529674 1.350357 -3.050765 5.111398 -2.000673 -0.000002 -0.000002 -0.000001 -1.911288 1.806256 28.576337 0.653215 -2.947127 24.989248 0.001524 -0.146418 1.201598 0.000004 -0.000003 -0.000006 0.813702 -3.277902 26.015999 0.710192 -3.066273 26.075641 0.005253 -0.264918 2.174384 -0.000003 0.000000 0.000003 0.219471 -2.420836 33.380822 0.642529 -2.924135 24.780597 0.048955 -0.825344 6.788832 0.000000 0.000001 0.000002 -6.189803 9.205958 4.992943 15.200439 -5.294352 2.487128 -4.183594 0.439793 -4.879339 0.000005 0.000000 0.000002 -0.000000 -0.000000 -0.000000 -3.417241 -8.494584 -4.237737 10.759053 -6.326999 -5.541941 -1.707696 -0.592207 8.981842 -0.000029 -0.000002 0.000003 0.000000 -0.000002 0.000000 
0.081813 199.767349 0.094263 -4.946352 -0.644445 -0.337389 4.064221 -0.137298 0.824553 1.069618 -0.072725 0.129946 1.069044 -0.078383 0.131712 1.417771 1.215711 -0.805673 -9.656124 -0.465898 -0.282910 -0.000000 -0.000000 -0.000000 -0.000000 -0.000000 -0.000000 -0.000000 -0.000000 -0.000000 0.725337 0.324636 -10.272727 9.217714 -21.888492 -58.218641 -0.000006 -25.513997 -0.000011 7.778041 10.088136 -16.576335 1.810246 5.490226 -24.148480 1.422072 4.195494 -37.434703 0.027710 0.618429 -5.131513 0.000001 -0.000004 0.000002 -0.237926 6.164139 9.162439 9.709669 27.695597 -3.627018 -3.050958 -7.955971 4.234929 0.000000 -0.000000 -0.000003 2.764048 6.460469 -31.254703 0.506769 2.597163 -22.078158 0.232985 1.779446 -14.917861 -0.000001 -0.000002 0.000001 1.752151 4.690227 -34.464250 0.649939 2.925062 -25.049422 0.046282 0.798667 -6.633287 0.000001 0.000002 -0.000002 4.567189 10.522603 -26.879735 1.198611 -0.197138 -34.488801 0.010112 0.373818 -3.099221 0.000000 0.000001 0.000002 0.964392 4.498192 10.493817 11.294414 18.249280 58.084748 -0.000000 26.769519 0.000016 1.486441 -6.577206 6.952658 -1.139621 0.483628 27.724815 0.606601 -2.845121 24.066720 0.043012 -0.775471 6.376583 -0.000001 0.000001 0.000001 -6.491868 -11.091436 -8.663764 11.766747 -26.222925 1.311806 -3.123037 5.316298 -1.996114 0.000000 0.000000 -0.000001 -1.927176 1.806582 28.714272 0.653423 -2.947567 24.993231 0.001832 -0.160018 1.313200 -0.000003 0.000001 -0.000001 0.753642 -3.155503 25.928928 0.708718 -3.063239 26.047686 0.005045 -0.266129 2.184400 -0.000002 0.000001 0.000005 0.100030 -2.227855 33.204428 0.638749 -2.915940 24.706317 0.048951 -0.825240 6.787950 0.000000 0.000000 0.000002 -6.645928 9.065462 4.947738 15.243295 -5.149190 2.500342 -4.035516 0.436696 -4.898145 -0.003652 0.000000 -0.000000 0.000000 0.000000 0.000000 -3.992222 -8.341759 -4.245699 10.998338 -6.437000 -5.561496 -1.656146 -0.587219 8.955581 0.000009 0.000002 -0.000003 -0.000000 -0.000000 0.000000 
